<?xml version="1.0" ?>
<!DOCTYPE svg  PUBLIC '-//W3C//DTD SVG 1.1//EN'  'http://www.w3.org/Graphics/SVG/1.1/DTD/svg11.dtd'>
<!-- Uploaded to: SVG Repo, www.svgrepo.com, Generator: SVG Repo Mixer Tools -->
<svg width="800px" height="800px" viewBox="0 0 32 32" enable-background="new 0 0 32 32" version="1.1" xml:space="preserve" xmlns="http://www.w3.org/2000/svg" xmlns:xlink="http://www.w3.org/1999/xlink">
<g id="Security02"/>
<g id="Security03"/>
<g id="Security04"/>
<g id="Security05"/>
<g id="Security06"/>
<g id="Security07">
<g>
<path d="M22.0098,7c-0.0039,0.001-0.0117,0.001-0.0195,0h-12c-0.5527,0-1-0.4473-1-1c0-2.7568,2.2432-5,5-5h4    c2.6826,0,4.8779,2.123,4.9951,4.7773C23.002,5.8486,23.0098,5.9238,23.0098,6C23.0098,6.5527,22.5625,7,22.0098,7z M11.1611,5    h9.6582c-0.4131-1.1641-1.5254-2-2.8291-2h-4C12.6865,3,11.5742,3.8359,11.1611,5z" fill="#3F51B5"/>
</g>
<g>
<g>
<path d="M31,8v16c0,1.65-1.35,3-3,3H4c-1.65,0-3-1.35-3-3V8c0-1.65,1.35-3,3-3h24C29.65,5,31,6.35,31,8z" fill="#FFC10A"/>
</g>
</g>
<g>
<path d="M7,5v22H4c-1.65,0-3-1.35-3-3V8c0-1.65,1.35-3,3-3H7z" fill="#3F51B5"/>
</g>
<g>
<path d="M31,8v16c0,1.65-1.35,3-3,3h-3V5h3C29.65,5,31,6.35,31,8z" fill="#3F51B5"/>
</g>
<path d="M19,14c0,1.3-0.84,2.4-2,2.82V20c0,0.55-0.45,1-1,1s-1-0.45-1-1v-3.18c-1.16-0.42-2-1.52-2-2.82   c0-1.65,1.35-3,3-3S19,12.35,19,14z" fill="#FFFFFF"/>
<g>
<rect fill="#2197F3" height="22" width="2" x="24" y="5"/>
</g>
<g>
<rect fill="#2197F3" height="22" width="2" x="6" y="5"/>
</g>
</g>
<g id="Security08"/>
<g id="Security09"/>
<g id="Security10"/>
<g id="Security11"/>
<g id="Security12"/>
<g id="Security13"/>
<g id="Security14"/>
<g id="Security15"/>
<g id="Security16"/>
<g id="Security17"/>
<g id="Security18"/>
<g id="Security19"/>
<g id="Security20"/>
<g id="Security21"/>
</svg>